<?xml version="1.0" encoding="utf-8"?>
<!-- Generator: Adobe Illustrator 26.5.0, SVG Export Plug-In . SVG Version: 6.00 Build 0)  -->
<svg version="1.1" id="Layer_1" xmlns="http://www.w3.org/2000/svg" xmlns:xlink="http://www.w3.org/1999/xlink" x="0px" y="0px"
	 viewBox="0 0 49.9 50" style="enable-background:new 0 0 49.9 50;" xml:space="preserve">
<style type="text/css">
	.st0{fill:#F24B09;}
	.st1{fill:none;}
	.st2{fill:#1C1D21;}
</style>
<g>
	<path class="st0" d="M31.5,17.4l-5.9,5.9c-0.2,0.2-0.6,0.4-0.9,0.4c-0.3,0-0.7-0.1-0.9-0.4l-3.4-3.4l-2.5-2.5l-5,5
		c-0.5,0.5-1.3,0.5-1.8,0c-0.5-0.5-0.5-1.3,0-1.8l6-5.9c0.2-0.2,0.6-0.4,0.9-0.4s0.7,0.1,0.9,0.4l5.9,5.9l5-5c0.5-0.5,1.3-0.5,1.8,0
		C32,16.1,32,16.9,31.5,17.4L31.5,17.4z"/>
	<g>
		<path class="st1" d="M31.1,8.8C28.4,6,24.8,4.5,21,4.5c-3.8,0-7.5,1.5-10.2,4.2c-2.7,2.7-4.2,6.4-4.2,10.2c0,3.8,1.5,7.5,4.2,10.2
			c2.7,2.7,6.4,4.2,10.2,4.2c3.8,0,7.5-1.5,10.2-4.2c2.7-2.7,4.2-6.4,4.2-10.2C35.4,15.1,33.8,11.5,31.1,8.8z"/>
		<path class="st1" d="M46.8,41.8L46.8,41.8l-6.7-6.7L37.2,38l6.7,6.7c0.4,0.4,0.9,0.6,1.4,0.6c0.5,0,1-0.2,1.4-0.6h0
			c0.4-0.4,0.6-0.9,0.6-1.4C47.4,42.7,47.2,42.2,46.8,41.8z"/>
		<path class="st0" d="M41.5,7.3v2.4h0c0,0.7,0.6,1.3,1.3,1.3c0.7,0,1.3-0.6,1.3-1.3V4.2c0-0.3-0.1-0.7-0.4-0.9
			c-0.2-0.2-0.6-0.4-0.9-0.4h-5.5c-0.7,0-1.3,0.6-1.3,1.3c0,0.7,0.6,1.3,1.3,1.3h2.4l-4.4,4.4l1.2,2.4L41.5,7.3z"/>
		<path class="st0" d="M0.4,31.3c-0.5,0.5-0.5,1.3,0,1.8c0.5,0.5,1.3,0.5,1.8,0l4.7-4.7l-1.3-2.3L0.4,31.3z"/>
		<path class="st2" d="M48.5,40l-7.6-7.6C40.7,32.2,40.4,32,40,32c-0.3,0-0.7,0.1-0.9,0.4l-1.4,1.4L33.8,30c2.1-2.4,3.4-5.3,3.9-8.5
			c0.5-3.1,0.1-6.3-1.2-9.2l-1.2-2.4h0C33,6.3,29.4,3.7,25.3,2.7c-4.2-1.1-8.6-0.5-12.3,1.5c-3.8,2-6.6,5.4-8,9.5
			c-1.4,4.1-1.1,8.5,0.6,12.4l1.3,2.3v0c0.6,0.9,1.3,1.7,2.1,2.5c3,3,7.1,4.8,11.3,4.9c4.3,0.2,8.4-1.3,11.7-4.1l3.8,3.8l-1.4,1.4v0
			C34.2,37.3,34,37.7,34,38c0,0.3,0.1,0.7,0.4,0.9l7.6,7.6c0.9,0.9,2,1.3,3.2,1.3s2.4-0.5,3.2-1.3c0.9-0.9,1.3-2,1.3-3.2
			S49.4,40.9,48.5,40z M31.1,29.1c-2.7,2.7-6.4,4.2-10.2,4.2c-3.8,0-7.5-1.5-10.2-4.2c-2.7-2.7-4.2-6.4-4.2-10.2
			c0-3.8,1.5-7.5,4.2-10.2C13.5,6,17.1,4.5,21,4.5c3.8,0,7.5,1.5,10.2,4.2c2.7,2.7,4.2,6.4,4.2,10.2C35.4,22.8,33.8,26.4,31.1,29.1z
			 M46.7,44.7c-0.4,0.4-0.9,0.6-1.4,0.6c-0.5,0-1-0.2-1.4-0.6L37.2,38l2.9-2.9l6.7,6.7h0c0.4,0.4,0.6,0.9,0.6,1.4
			C47.4,43.8,47.1,44.3,46.7,44.7L46.7,44.7z"/>
	</g>
</g>
</svg>
