<?xml version="1.0" encoding="utf-8"?>
<!-- Generator: Adobe Illustrator 26.5.0, SVG Export Plug-In . SVG Version: 6.00 Build 0)  -->
<svg version="1.1" id="Layer_1" xmlns="http://www.w3.org/2000/svg" xmlns:xlink="http://www.w3.org/1999/xlink" x="0px" y="0px"
	 viewBox="0 0 49.9 50" style="enable-background:new 0 0 49.9 50;" xml:space="preserve">
<style type="text/css">
	.st0{fill:#1C1D21;}
	.st1{fill:#F24B09;}
</style>
<g>
	<path class="st0" d="M10.9,25c0,2.8,0.8,5.4,2.4,7.7c1.5,2.3,3.7,4.1,6.2,5.2v5.8c0,1.9,1,3.7,2.7,4.7c1.7,1,3.8,1,5.5,0
		c1.7-1,2.7-2.8,2.7-4.7v-5.8c3.1-1.3,5.7-3.7,7.2-6.8c1.5-3.1,1.8-6.5,0.9-9.8c-0.9-3.3-2.9-6.1-5.8-8s-6.2-2.7-9.6-2.2
		c-3.4,0.5-6.5,2.1-8.7,4.7C12.2,18.3,10.9,21.6,10.9,25L10.9,25z M25,47.6c-0.8,0-1.5-0.2-2.1-0.6c-0.6-0.4-1.1-1-1.4-1.7h7.2
		c-0.3,0.7-0.8,1.3-1.4,1.7C26.5,47.4,25.7,47.6,25,47.6z M28.8,43.7h-7.8v-2.3h7.8V43.7z M24.2,20.3c0-0.3,0.2-0.6,0.5-0.7
		c0.3-0.1,0.6-0.1,0.8,0.2c0.2,0.2,0.3,0.6,0.2,0.8c-0.1,0.3-0.4,0.5-0.7,0.5C24.5,21.1,24.2,20.7,24.2,20.3z M25,12.5
		c3.9,0,7.6,1.8,10,5c2.4,3.1,3.1,7.2,2,11c-1.1,3.8-3.9,6.8-7.6,8.2c-0.3,0.1-0.5,0.4-0.5,0.7v2.4h-3.1v-5.9l5.2-4.4
		c0.2-0.1,0.3-0.4,0.3-0.6v-1.7c0.7-0.2,1.2-0.8,1.5-1.5c0.2-0.7,0.1-1.5-0.4-2.1c-0.4-0.6-1.1-0.9-1.9-0.9S29,23,28.5,23.6
		c-0.4,0.6-0.6,1.4-0.4,2.1c0.2,0.7,0.8,1.3,1.5,1.5v1.3l-3.9,3.3v-9.4c0.7-0.2,1.2-0.8,1.5-1.5c0.2-0.7,0.1-1.5-0.4-2.1
		C26.4,18.3,25.7,18,25,18s-1.4,0.4-1.9,0.9c-0.4,0.6-0.6,1.4-0.4,2.1c0.2,0.7,0.8,1.3,1.5,1.5v6.6l-3.9-2.2v-1.2
		c0.7-0.2,1.2-0.8,1.5-1.5c0.2-0.7,0.1-1.5-0.4-2.1c-0.4-0.6-1.1-0.9-1.9-0.9s-1.4,0.4-1.9,0.9c-0.4,0.6-0.6,1.4-0.4,2.1
		c0.2,0.7,0.8,1.3,1.5,1.5v1.7c0,0.3,0.1,0.5,0.4,0.7l5.1,2.9v8.9h-3.1v-2.4c0-0.3-0.2-0.6-0.5-0.7c-3.7-1.4-6.5-4.4-7.6-8.2
		c-1.1-3.8-0.4-7.8,2-11C17.3,14.4,21,12.5,25,12.5L25,12.5z M29.6,25c0-0.3,0.2-0.6,0.5-0.7c0.3-0.1,0.6-0.1,0.8,0.2
		c0.2,0.2,0.3,0.6,0.2,0.8c-0.1,0.3-0.4,0.5-0.7,0.5C30,25.8,29.6,25.4,29.6,25z M19.5,24.2c-0.3,0-0.6-0.2-0.7-0.5
		c-0.1-0.3-0.1-0.6,0.2-0.8c0.2-0.2,0.6-0.3,0.8-0.2c0.3,0.1,0.5,0.4,0.5,0.7c0,0.2-0.1,0.4-0.2,0.6C19.9,24.1,19.7,24.2,19.5,24.2z
		"/>
	<path class="st1" d="M46.8,22.6c-0.5,0-1,0.2-1.3,0.4c-0.4,0.3-0.7,0.7-0.9,1.1h-3.3v1.6h3.3c0.2,0.5,0.6,1,1.1,1.3
		c0.5,0.3,1.1,0.4,1.6,0.2c0.6-0.1,1-0.5,1.4-0.9c0.3-0.5,0.5-1,0.4-1.6c-0.1-0.6-0.3-1.1-0.8-1.5C47.9,22.9,47.3,22.6,46.8,22.6
		L46.8,22.6z M46.8,25.8c-0.3,0-0.6-0.2-0.7-0.5c-0.1-0.3-0.1-0.6,0.2-0.8c0.2-0.2,0.6-0.3,0.8-0.2c0.3,0.1,0.5,0.4,0.5,0.7
		c0,0.2-0.1,0.4-0.2,0.6C47.2,25.7,47,25.8,46.8,25.8z"/>
	<path class="st1" d="M3.1,22.6c-0.6,0-1.1,0.2-1.6,0.6c-0.4,0.4-0.7,0.9-0.8,1.5c-0.1,0.6,0.1,1.1,0.4,1.6c0.3,0.5,0.8,0.8,1.4,0.9
		c0.6,0.1,1.1,0,1.7-0.2c0.5-0.3,0.9-0.7,1.1-1.3h3.3v-1.6H5.3c-0.2-0.5-0.5-0.8-0.9-1.1C4.1,22.8,3.6,22.7,3.1,22.6L3.1,22.6z
		 M3.1,25.8c-0.3,0-0.6-0.2-0.7-0.5c-0.1-0.3-0.1-0.6,0.2-0.8c0.2-0.2,0.6-0.3,0.8-0.2c0.3,0.1,0.5,0.4,0.5,0.7
		c0,0.2-0.1,0.4-0.2,0.6C3.5,25.7,3.3,25.8,3.1,25.8z"/>
	<path class="st1" d="M37.1,14l2.3-2.3c0.7,0.3,1.4,0.3,2.1,0c0.7-0.3,1.1-1,1.2-1.7c0.1-0.7-0.1-1.5-0.7-2c-0.4-0.4-1-0.7-1.7-0.7
		c-0.6,0-1.2,0.2-1.7,0.7c-0.3,0.3-0.6,0.8-0.6,1.3c-0.1,0.5,0,1,0.2,1.4L36,12.9L37.1,14z M39.8,9c0.1-0.2,0.3-0.2,0.6-0.2
		c0.2,0,0.4,0.1,0.6,0.2c0.1,0.1,0.2,0.3,0.2,0.6c0,0.2-0.1,0.4-0.2,0.6c-0.3,0.3-0.8,0.3-1.1,0c-0.1-0.1-0.2-0.3-0.2-0.6
		C39.6,9.4,39.7,9.2,39.8,9L39.8,9z"/>
	<path class="st1" d="M12.8,36l-2.3,2.3c-0.4-0.2-0.9-0.3-1.4-0.2c-0.5,0.1-0.9,0.3-1.3,0.6c-0.4,0.4-0.7,0.9-0.7,1.5
		c0,0.6,0.1,1.1,0.5,1.6c0.4,0.5,0.9,0.8,1.4,0.9c0.6,0.1,1.1,0,1.6-0.3c0.5-0.3,0.8-0.8,1-1.3c0.2-0.6,0.1-1.1-0.1-1.7l2.3-2.3
		L12.8,36z M10.1,41c-0.3,0.3-0.8,0.3-1.1,0c-0.2-0.2-0.3-0.6-0.2-0.8c0.1-0.3,0.4-0.5,0.7-0.5c0.3,0,0.6,0.2,0.7,0.5
		C10.4,40.4,10.3,40.7,10.1,41L10.1,41z"/>
	<path class="st1" d="M38.7,42.1c0.6,0.6,1.5,0.8,2.3,0.6c0.8-0.2,1.4-0.8,1.7-1.7c0.2-0.8,0-1.7-0.6-2.3c-0.3-0.3-0.8-0.5-1.3-0.6
		c-0.5-0.1-1,0-1.4,0.2L37.1,36L36,37.1l2.3,2.3c-0.2,0.4-0.3,0.9-0.2,1.4C38.2,41.3,38.4,41.7,38.7,42.1L38.7,42.1z M39.8,39.9
		c0.3-0.3,0.8-0.3,1.1,0c0.3,0.3,0.3,0.8,0,1.1c-0.3,0.3-0.8,0.3-1.1,0C39.5,40.7,39.5,40.2,39.8,39.9L39.8,39.9z"/>
	<path class="st1" d="M11.2,7.9c-0.4-0.4-1-0.7-1.7-0.7c-0.6,0-1.2,0.2-1.7,0.7c-0.5,0.5-0.8,1.3-0.7,2c0.1,0.7,0.6,1.4,1.2,1.7
		c0.7,0.3,1.4,0.4,2.1,0l2.3,2.3l1.1-1.1l-2.3-2.3c0.2-0.4,0.3-0.9,0.2-1.4C11.7,8.7,11.5,8.3,11.2,7.9L11.2,7.9z M10.1,10.1
		c-0.3,0.3-0.8,0.3-1.1,0C8.8,9.9,8.7,9.6,8.8,9.3C8.9,9,9.2,8.8,9.5,8.8c0.3,0,0.6,0.2,0.7,0.5C10.4,9.6,10.3,9.9,10.1,10.1
		L10.1,10.1z"/>
	<path class="st1" d="M25.7,8.6V5.4c0.7-0.2,1.2-0.8,1.5-1.5c0.2-0.7,0.1-1.5-0.4-2.1c-0.4-0.6-1.1-0.9-1.9-0.9s-1.4,0.4-1.9,0.9
		c-0.4,0.6-0.6,1.4-0.4,2.1c0.2,0.7,0.8,1.3,1.5,1.5v3.3H25.7z M25,2.4c0.3,0,0.6,0.2,0.7,0.5c0.1,0.3,0.1,0.6-0.2,0.8
		c-0.2,0.2-0.6,0.3-0.8,0.2c-0.3-0.1-0.5-0.4-0.5-0.7C24.2,2.7,24.5,2.4,25,2.4z"/>
</g>
</svg>
