<?xml version="1.0" encoding="utf-8"?>
<!-- Generator: Adobe Illustrator 26.5.0, SVG Export Plug-In . SVG Version: 6.00 Build 0)  -->
<svg version="1.1" id="Layer_1" xmlns="http://www.w3.org/2000/svg" xmlns:xlink="http://www.w3.org/1999/xlink" x="0px" y="0px"
	 viewBox="0 0 49.9 50" style="enable-background:new 0 0 49.9 50;" xml:space="preserve">
<style type="text/css">
	.st0{fill-rule:evenodd;clip-rule:evenodd;fill:#1C1D21;}
	.st1{fill-rule:evenodd;clip-rule:evenodd;fill:#F24B09;}
</style>
<g>
	<path class="st0" d="M18.3,21.9l-3-6.4l-3,6.4L18.3,21.9z M15.6,13.3c0.2,0.1,0.3,0.2,0.3,0.3L22,26.8c0.2,0.3,0,0.7-0.3,0.9
		c-0.3,0.2-0.7,0-0.9-0.3l-1.9-4.1h-7.2l-1.9,4.1c-0.2,0.3-0.5,0.5-0.9,0.3c-0.3-0.2-0.5-0.6-0.3-0.9l6.1-13.2
		C14.9,13.3,15.3,13.1,15.6,13.3L15.6,13.3z M20.8,47l7.8-7.5c0.2-0.1,0.3-0.4,0.2-0.6l-2.9-22.9l-1.2-9.3l-0.2-1.9
		c-0.1-1-0.5-1.9-1.2-2.5c-0.6-0.6-1.5-1-2.4-1H5.3c-1,0-1.9,0.4-2.5,1.1C2.1,3.1,1.7,4,1.7,4.9v31.1c0,1,0.4,1.9,1.1,2.5
		c0.7,0.7,1.6,1.1,2.5,1.1h12.2V44c0,1.3,0.5,2.4,1.4,3.3c0.8,0.8,2,1.4,3.3,1.4h21.3c1.3,0,2.4-0.5,3.3-1.4c0.8-0.8,1.4-2,1.4-3.3
		V13.8c0-1.3-0.5-2.4-1.4-3.3c-0.8-0.8-2-1.4-3.3-1.4l-16.9,0l0.2,1.3h16.8c0.9,0,1.7,0.4,2.3,1c0.6,0.6,1,1.4,1,2.3V44
		c0,0.9-0.4,1.7-1,2.3c-0.6,0.6-1.4,1-2.3,1H22.2C21.7,47.3,21.2,47.2,20.8,47L20.8,47z"/>
	<path class="st1" d="M30.7,24.9c-0.4,0-0.7-0.3-0.7-0.7c0-0.4,0.3-0.7,0.7-0.7h5.4v-1.3c0-0.4,0.3-0.7,0.7-0.7s0.7,0.3,0.7,0.7v1.3
		h5.4c0.4,0,0.7,0.3,0.7,0.7c0,0.4-0.3,0.7-0.7,0.7h-2.3c0,0.1,0,0.2,0,0.3c0,0.3,0,0.6-0.1,0.9c-0.4,2.7-1.4,5.1-2.9,6.9
		c1.2,1.1,2.6,1.8,4,1.8c0.4,0,0.7,0.3,0.7,0.7c0,0.4-0.3,0.7-0.7,0.7c-1.7,0-3.4-0.8-4.9-2.2c-1.4,1.4-3.1,2.2-4.9,2.2
		c-0.4,0-0.7-0.3-0.7-0.7c0-0.4,0.3-0.7,0.7-0.7c1.4,0,2.8-0.7,4-1.8c-1.3-1.5-2.2-3.5-2.7-5.8c-0.1-0.4,0.2-0.7,0.5-0.8
		c0.4-0.1,0.7,0.2,0.8,0.5c0.4,1.9,1.2,3.7,2.3,5.1c1.3-1.6,2.2-3.7,2.5-6.1c0-0.3,0.1-0.6,0.1-0.8c0-0.1,0-0.1,0-0.2L30.7,24.9
		L30.7,24.9z"/>
</g>
</svg>
