<?xml version="1.0" encoding="utf-8"?>
<!-- Generator: Adobe Illustrator 26.5.0, SVG Export Plug-In . SVG Version: 6.00 Build 0)  -->
<svg version="1.1" id="Layer_1" xmlns="http://www.w3.org/2000/svg" xmlns:xlink="http://www.w3.org/1999/xlink" x="0px" y="0px"
	 viewBox="0 0 49.9 50" style="enable-background:new 0 0 49.9 50;" xml:space="preserve">
<style type="text/css">
	.st0{fill:#1C1D21;}
	.st1{fill:#F24B09;}
</style>
<g>
	<path class="st0" d="M25,0.7c-6.4,0-12.6,2.6-17.1,7.1C3.3,12.4,0.7,18.6,0.7,25s2.6,12.6,7.1,17.1c4.5,4.5,10.7,7.1,17.1,7.1
		c2.6,0,5.1-0.4,7.5-1.2l-0.6-1.8h0c-4.8,1.5-9.9,1.4-14.6-0.3c-4.7-1.7-8.7-5-11.3-9.3c-2.6-4.3-3.7-9.3-3.1-14.3
		c0.6-5,2.8-9.6,6.4-13.2s8.2-5.8,13.2-6.4c5-0.6,10,0.5,14.3,3.1c4.3,2.6,7.5,6.6,9.3,11.3s1.8,9.9,0.3,14.6l1.8,0.6v0
		c0.8-2.4,1.2-5,1.2-7.5c0-6.4-2.6-12.6-7.1-17.1C37.5,3.3,31.4,0.8,25,0.7L25,0.7z"/>
	<path class="st0" d="M25,10.4c-5.2,0-10,2.8-12.6,7.3c-2.6,4.5-2.6,10,0,14.6c2.6,4.5,7.4,7.3,12.6,7.3c1.5,0,3-0.2,4.4-0.7
		L28.8,37c-1.3,0.4-2.6,0.6-3.9,0.6c-3.3,0-6.6-1.3-8.9-3.7s-3.7-5.6-3.7-8.9s1.3-6.6,3.7-8.9s5.6-3.7,8.9-3.7s6.6,1.3,8.9,3.7
		s3.7,5.6,3.7,8.9c0,1.3-0.2,2.6-0.6,3.9l1.8,0.6h0c0.5-1.5,0.7-3,0.7-4.5c0-3.9-1.5-7.6-4.3-10.3C32.5,12,28.8,10.4,25,10.4
		L25,10.4z"/>
	<path class="st1" d="M27.8,27.8l6.9,20.6l4.8-8.9l8.9-4.8L27.8,27.8z"/>
	<path class="st1" d="M40.8,40.9L38.6,45c2.5-1.7,4.6-3.9,6.3-6.3L40.8,40.9z"/>
</g>
</svg>
