<?xml version="1.0" encoding="utf-8"?>
<!-- Generator: Adobe Illustrator 26.5.0, SVG Export Plug-In . SVG Version: 6.00 Build 0)  -->
<svg version="1.1" id="Layer_1" xmlns="http://www.w3.org/2000/svg" xmlns:xlink="http://www.w3.org/1999/xlink" x="0px" y="0px"
	 viewBox="0 0 49.9 50" style="enable-background:new 0 0 49.9 50;" xml:space="preserve">
<style type="text/css">
	.st0{fill-rule:evenodd;clip-rule:evenodd;fill:#1C1D21;}
	.st1{fill-rule:evenodd;clip-rule:evenodd;fill:#F24B09;}
</style>
<g>
	<path class="st0" d="M24.5,2.4C26.1,1,28.8,0.3,31.4,1c2.6,0.7,4.6,2.6,5.2,4.7c2.1-0.3,4.8,0.5,6.6,2.5c1.8,2,2.4,4.7,1.9,6.8
		c2,0.9,3.7,3,4.2,5.7c0.4,2.7-0.5,5.3-2.1,6.7c1.2,1.8,1.5,4.5,0.4,7c-1.1,2.5-3.3,4.2-5.4,4.5c0,2.2-1.2,4.6-3.4,6.1
		c-2.2,1.5-5,1.7-7,0.9c-1.1,1.8-3.5,3.2-6.2,3.3c-2.7,0.1-5.1-1.2-6.4-3c-1.9,0.9-4.7,0.8-7-0.6c-2.3-1.4-3.6-3.8-3.7-6
		c-2.1-0.3-4.4-1.8-5.6-4.3c-1.2-2.4-1-5.2,0.1-7c-1.7-1.4-2.7-3.9-2.4-6.6c0.3-2.7,2-4.9,3.9-5.9c-0.6-2.1-0.2-4.8,1.6-6.9
		C7.8,7,10.4,6,12.5,6.3c0.6-2.1,2.5-4.1,5-4.9C20.1,0.5,22.8,1.1,24.5,2.4L24.5,2.4z M25,7.3c-9.6,0-17.4,7.8-17.4,17.4
		S15.4,42.2,25,42.2s17.4-7.8,17.4-17.4S34.6,7.3,25,7.3L25,7.3z"/>
	<path class="st1" d="M25,8.3c9.1,0,16.4,7.4,16.4,16.4S34.1,41.1,25,41.1S8.6,33.8,8.6,24.7S15.9,8.3,25,8.3L25,8.3z"/>
	<polygon class="st0" points="14.8,22.6 21.8,27.5 35.2,16.9 21.8,32.5 	"/>
</g>
</svg>
