<?xml version="1.0" encoding="utf-8"?>
<!-- Generator: Adobe Illustrator 26.5.0, SVG Export Plug-In . SVG Version: 6.00 Build 0)  -->
<svg version="1.1" id="Layer_1" xmlns="http://www.w3.org/2000/svg" xmlns:xlink="http://www.w3.org/1999/xlink" x="0px" y="0px"
	 viewBox="0 0 49.9 50" style="enable-background:new 0 0 49.9 50;" xml:space="preserve">
<style type="text/css">
	.st0{fill:#F24B09;}
	.st1{fill:#1C1D21;}
</style>
<g>
	<path class="st0" d="M26.7,26c-0.6,0.2-1.1,0.3-1.7,0.3c-0.6,0-1.2-0.1-1.7-0.3l1,1.6l-1.6,10.2l2.3,1.5l2.3-1.5l-1.6-10.2L26.7,26
		z"/>
	<path class="st0" d="M27.8,25.8l-1.3,2l1.3,8.2c4.7-0.7,8.1-2.7,8.1-4.8C35.9,28.9,32.4,26.6,27.8,25.8z"/>
	<path class="st0" d="M22.2,25.8c-5,0.9-8.1,3.4-8.1,5.4c0,2.1,3.4,4.1,8.1,4.8l1.3-8.2L22.2,25.8z"/>
	<path class="st0" d="M25,25.6c3.1,0,5.9-3.7,5.9-7.8c0-3.9-2.6-7-5.9-7s-5.9,3.2-5.9,7C19.1,21.8,21.9,25.6,25,25.6z"/>
	<path class="st1" d="M49.9,28v-6l-5.6-0.5c-0.5-2.8-1.6-5.4-3.2-7.7l3.6-4.3l-4.2-4.2l-4.3,3.6c-2.2-1.6-4.9-2.7-7.7-3.2L27.9,0
		l-6,0l-0.5,5.6c-2.8,0.5-5.4,1.6-7.7,3.2L9.4,5.2L5.2,9.5l3.6,4.3c-1.6,2.2-2.7,4.9-3.2,7.7L0,22v6l5.6,0.5
		c0.5,2.8,1.6,5.4,3.2,7.7l-3.6,4.3l4.2,4.2l4.3-3.6c2.2,1.6,4.9,2.7,7.7,3.2L22,50h6l0.5-5.6c2.8-0.5,5.4-1.6,7.7-3.2l4.3,3.6
		l4.2-4.2l-3.6-4.3c1.6-2.2,2.7-4.9,3.2-7.7L49.9,28z M41,25c0,8.8-7.2,16-16,16s-16-7.2-16-16S16.1,9,25,9S41,16.2,41,25z"/>
</g>
</svg>
